<?xml version="1.0" standalone="no"?>
<!DOCTYPE svg PUBLIC "-//W3C//DTD SVG 20010904//EN"
 "http://www.w3.org/TR/2001/REC-SVG-20010904/DTD/svg10.dtd">
<svg version="1.0" xmlns="http://www.w3.org/2000/svg"
 width="1200.000000pt" height="1200.000000pt" viewBox="0 0 1200.000000 1200.000000"
 preserveAspectRatio="xMidYMid meet">
<metadata>
Created by potrace 1.11, written by Peter Selinger 2001-2013
</metadata>
<g transform="translate(0.000000,1200.000000) scale(0.100000,-0.100000)"
fill="#000000" stroke="none">
<path d="M2121 7599 c-37 -37 -41 -83 -11 -122 41 -52 108 -55 153 -7 37 41
37 88 -2 129 -41 44 -97 44 -140 0z"/>
<path d="M2689 7502 c-64 -57 -23 -159 66 -167 34 -3 43 1 72 31 44 48 44 85
-1 130 -44 44 -92 46 -137 6z"/>
<path d="M1603 7459 c-64 -23 -82 -111 -34 -160 80 -80 207 11 160 114 -18 41
-80 63 -126 46z"/>
<path d="M2166 7299 c-44 -34 -30 -96 26 -118 77 -29 128 93 52 128 -35 16
-47 14 -78 -10z m14 -55 c0 -8 -19 -13 -24 -6 -3 5 1 9 9 9 8 0 15 -2 15 -3z
m76 -6 c3 -4 -1 -5 -10 -4 -8 1 -18 5 -22 8 -3 4 1 5 10 4 8 -1 18 -5 22 -8z"/>
<path d="M2620 7209 c0 -5 -4 -8 -10 -4 -5 3 -15 -6 -23 -21 -11 -21 -12 -35
-4 -61 10 -30 20 -37 55 -36 6 1 12 -3 12 -8 0 -5 7 -6 15 -3 8 4 12 10 9 15
-3 5 1 6 9 3 14 -5 37 33 37 62 0 24 -47 64 -75 64 -14 0 -25 -5 -25 -11z m50
-23 c0 -3 -4 -8 -10 -11 -5 -3 -10 -1 -10 4 0 6 5 11 10 11 6 0 10 -2 10 -4z"/>
<path d="M3157 7172 c-17 -11 -32 -32 -39 -56 -10 -33 -9 -43 8 -75 51 -95
195 -53 181 53 -10 75 -88 115 -150 78z"/>
<path d="M1810 7162 c0 -5 -8 -12 -18 -14 -28 -8 -32 -71 -6 -99 17 -19 69
-26 90 -11 35 23 42 121 8 108 -8 -3 -13 0 -11 7 1 7 -12 13 -30 15 -18 2 -33
-1 -33 -6z"/>
<path d="M1172 7045 c-36 -30 -47 -66 -32 -110 23 -70 108 -88 160 -34 87 92
-32 225 -128 144z"/>
<path d="M2976 6961 c-4 -6 -11 -9 -16 -6 -17 11 -50 -29 -50 -60 0 -44 33
-77 73 -73 35 3 62 22 52 38 -3 5 -1 10 4 10 21 0 11 47 -14 68 -14 12 -25 19
-25 14 0 -4 -4 -1 -9 7 -6 9 -11 10 -15 2z"/>
<path d="M6123 6906 c-126 -44 -143 -209 -27 -271 45 -24 128 -21 170 5 54 34
81 133 53 188 -21 40 -60 71 -99 78 -61 12 -64 12 -97 0z"/>
<path d="M1519 6871 c-1 -3 -1 -9 0 -13 0 -4 -5 -5 -13 -2 -20 8 -42 -51 -26
-71 7 -8 9 -15 4 -15 -17 0 40 -34 60 -36 27 -3 60 21 51 36 -3 6 -1 9 6 8 23
-5 18 54 -6 76 -21 19 -74 30 -76 17z"/>
<path d="M9207 6798 c-9 -5 -12 -83 -8 -163 1 -12 14 -15 64 -14 34 1 92 1
129 0 l67 -1 4 -427 c1 -236 6 -437 9 -448 33 -108 106 -187 183 -201 16 -3
32 -7 37 -10 12 -7 134 -6 183 2 48 7 125 32 142 46 8 7 4 30 -18 90 -16 45
-31 83 -33 85 -2 3 -21 0 -43 -6 -47 -13 -114 -14 -147 -1 -50 19 -50 20 -52
550 -1 272 -2 497 -3 500 -2 8 -501 6 -514 -2z"/>
<path d="M3697 6713 c-3 -5 -18 -53 -35 -108 -17 -55 -49 -161 -72 -235 -23
-74 -43 -142 -45 -150 -2 -8 -18 -60 -35 -115 -18 -55 -40 -127 -50 -160 -92
-305 -112 -371 -113 -380 -3 -13 272 -13 283 0 4 5 11 24 14 40 3 17 14 69 26
116 l21 86 170 0 169 0 10 -38 c6 -22 15 -58 21 -81 6 -24 13 -53 15 -65 13
-71 7 -68 165 -67 79 1 145 2 146 3 1 0 -7 27 -17 59 -10 31 -34 109 -53 172
-20 63 -61 197 -92 298 -31 101 -58 191 -60 200 -2 9 -33 109 -68 222 l-64
205 -166 3 c-91 1 -168 -1 -170 -5z m198 -328 c15 -60 29 -121 31 -135 3 -14
16 -70 30 -124 14 -54 23 -104 21 -110 -3 -7 -40 -11 -106 -10 -156 3 -142 -3
-126 47 7 23 30 110 49 192 20 83 39 161 42 175 4 14 9 40 11 58 3 19 9 30 13
25 4 -4 20 -57 35 -118z"/>
<path d="M1022 6525 c-63 -27 -78 -117 -27 -165 59 -55 150 -18 162 66 5 36 1
45 -23 72 -36 37 -69 45 -112 27z"/>
<path d="M1375 6498 c-71 -38 -55 -125 25 -134 37 -4 70 28 70 69 0 26 -24 62
-41 62 -4 0 -11 3 -15 8 -10 9 -15 9 -39 -5z m-11 -36 c3 -5 -1 -9 -9 -9 -8 0
-12 4 -9 9 3 4 7 8 9 8 2 0 6 -4 9 -8z m66 -2 c0 -5 -2 -10 -4 -10 -3 0 -8 5
-11 10 -3 6 -1 10 4 10 6 0 11 -4 11 -10z"/>
<path d="M5065 6466 c-55 -17 -82 -33 -137 -78 -40 -33 -48 -37 -49 -21 0 10
-2 26 -4 36 -9 48 -9 48 -127 45 l-113 -3 -1 -442 c0 -244 2 -444 5 -444 4 -1
63 -2 134 -3 l127 -1 0 314 0 313 38 37 c73 71 160 82 188 24 5 -10 11 -169
14 -353 l5 -335 130 0 130 0 0 365 c0 324 -2 370 -17 410 -21 52 -65 103 -110
126 -40 21 -159 26 -213 10z"/>
<path d="M7205 6465 c-22 -8 -57 -32 -77 -56 l-38 -41 -10 27 c-5 14 -10 33
-10 41 0 12 -17 14 -97 12 l-98 -3 -1 -442 c0 -307 3 -443 10 -446 6 -2 58 -3
116 -3 l105 1 1 325 c0 179 4 333 9 343 16 36 95 61 112 35 4 -7 10 -168 13
-358 l5 -345 90 0 90 0 3 332 2 331 31 26 c17 14 41 26 54 26 48 0 49 -8 49
-371 0 -227 3 -339 11 -342 5 -1 55 -3 110 -2 l100 0 0 395 0 395 -25 45 c-61
109 -202 118 -314 20 l-34 -30 -21 35 c-35 60 -105 78 -186 50z"/>
<path d="M8357 6456 c-147 -49 -243 -160 -280 -323 -12 -51 -15 -203 -4 -243
2 -8 7 -31 11 -50 11 -46 58 -138 88 -170 158 -174 474 -191 687 -38 l23 16
-48 69 c-26 37 -49 70 -51 72 -1 2 -34 -10 -71 -27 -120 -56 -240 -51 -309 11
-35 32 -80 137 -63 147 4 3 134 5 288 4 246 0 281 2 285 15 5 19 0 156 -6 191
-16 82 -57 174 -99 221 -38 43 -108 88 -162 105 -83 26 -212 26 -289 0z m199
-166 c54 -21 90 -83 96 -165 l3 -40 -162 0 -162 0 5 39 c16 130 116 205 220
166z"/>
<path d="M5829 6448 c-1 -2 -2 -42 -3 -90 -2 -71 1 -87 13 -90 9 -2 64 -3 124
-3 l107 1 0 -263 0 -263 -125 0 -125 0 -1 -27 c-1 -16 -1 -57 -2 -93 l0 -65
372 0 c242 0 371 3 372 10 4 40 3 159 -1 166 -3 4 -55 10 -115 11 l-110 3 -1
340 c-1 187 -2 346 -3 353 -1 9 -58 12 -251 12 -137 0 -250 -1 -251 -2z"/>
<path d="M1470 6083 c-56 -21 -68 -87 -23 -123 28 -22 70 -24 66 -3 -2 7 3 10
11 7 27 -10 45 51 26 87 -7 12 -18 18 -26 15 -7 -3 -13 0 -11 6 2 13 -21 19
-43 11z m17 -118 c0 -8 -4 -12 -9 -9 -5 3 -6 10 -3 15 9 13 12 11 12 -6z"/>
<path d="M1114 5968 c-42 -20 -60 -90 -35 -136 15 -28 76 -55 110 -47 53 11
88 74 70 123 -25 65 -84 90 -145 60z"/>
<path d="M2880 5813 c-24 -9 -40 -35 -40 -66 0 -32 24 -62 41 -51 8 4 9 3 5
-4 -8 -13 15 -16 52 -6 15 4 21 12 18 21 -3 8 -2 12 3 9 5 -3 12 1 15 10 23
61 -30 110 -94 87z"/>
<path d="M1715 5737 c-26 -24 -33 -50 -21 -85 5 -14 13 -21 22 -18 8 3 13 0
11 -7 -1 -7 10 -13 25 -15 33 -4 83 40 75 66 -2 9 -6 24 -8 32 -10 40 -71 56
-104 27z m35 -37 c0 -5 -5 -10 -11 -10 -5 0 -7 5 -4 10 3 6 8 10 11 10 2 0 4
-4 4 -10z m65 -20 c-3 -5 -12 -10 -18 -10 -7 0 -6 4 3 10 19 12 23 12 15 0z
m-65 -20 c0 -5 -2 -10 -4 -10 -3 0 -8 5 -11 10 -3 6 -1 10 4 10 6 0 11 -4 11
-10z"/>
<path d="M3074 5624 c-83 -40 -76 -159 11 -183 57 -15 101 10 124 71 28 75
-60 148 -135 112z"/>
<path d="M2523 5623 c-13 -3 -23 -11 -23 -19 0 -8 -6 -13 -12 -11 -14 2 -22
-35 -14 -67 3 -11 15 -27 27 -34 17 -11 20 -11 13 0 -6 10 -5 10 7 2 35 -28
91 18 87 71 -3 33 -48 64 -85 58z m47 -47 c0 -2 -8 -10 -17 -17 -16 -13 -17
-12 -4 4 13 16 21 21 21 13z"/>
<path d="M2074 5575 c-32 -32 -32 -88 1 -79 16 4 17 3 5 -5 -13 -10 -13 -12 0
-21 35 -23 85 -9 105 30 14 28 10 70 -7 70 -5 0 -6 -5 -2 -12 4 -7 3 -8 -4 -4
-6 4 -8 14 -5 23 5 13 2 15 -15 11 -12 -4 -20 -2 -16 3 12 20 -39 7 -62 -16z
m76 -75 c0 -5 -5 -10 -11 -10 -5 0 -7 5 -4 10 3 6 8 10 11 10 2 0 4 -4 4 -10z"/>
<path d="M1474 5530 c-61 -24 -69 -113 -14 -162 34 -31 67 -35 110 -13 51 27
65 82 33 135 -26 45 -78 61 -129 40z"/>
<path d="M2600 5338 c-47 -13 -68 -34 -76 -74 -8 -45 13 -85 58 -107 33 -16
40 -16 71 -4 85 36 91 140 9 181 -20 9 -37 10 -62 4z"/>
<path d="M1979 5282 c-26 -23 -33 -37 -32 -65 2 -75 63 -120 132 -97 102 33
82 172 -26 187 -35 4 -45 1 -74 -25z"/>
</g>
</svg>
